<svg width="360" height="76" viewBox="0 0 360 76" fill="none" xmlns="http://www.w3.org/2000/svg" role="img" aria-labelledby="portfolio-title portfolio-desc">
	<title id="portfolio-title">Portfolio</title>
	<desc id="portfolio-desc">baichu.dev</desc>
	<defs>
		<linearGradient id="portfolio-line" x1="22" y1="12" x2="338" y2="64" gradientUnits="userSpaceOnUse">
			<stop stop-color="#d1242f"/>
			<stop offset="1" stop-color="#d1242f"/>
		</linearGradient>
	</defs>
	<rect x="1" y="1" width="358" height="74" rx="14" fill="transparent" stroke="url(#portfolio-line)" stroke-width="2"/>
	<g color="#d1242f">
		<path d="M34 34h20a4 4 0 0 1 4 4v12a4 4 0 0 1-4 4H34a4 4 0 0 1-4-4V38a4 4 0 0 1 4-4Z" stroke="currentColor" stroke-width="2.4" stroke-linejoin="round"/>
	<path d="M39 34v-4a3 3 0 0 1 3-3h4a3 3 0 0 1 3 3v4" stroke="currentColor" stroke-width="2.4" stroke-linecap="round"/>
	<path d="M30 42h28" stroke="currentColor" stroke-width="2.4" stroke-linecap="round"/>
	<path d="M44 41v4" stroke="currentColor" stroke-width="2.4" stroke-linecap="round"/>
	</g>
	<text x="82" y="34" fill="#d1242f" font-family="-apple-system, BlinkMacSystemFont, 'Segoe UI', Helvetica, Arial, sans-serif" font-size="18" font-weight="700">Portfolio</text>
	<text x="82" y="55" fill="#57606a" font-family="-apple-system, BlinkMacSystemFont, 'Segoe UI', Helvetica, Arial, sans-serif" font-size="14">baichu.dev</text>
	<path d="M314 31h12v12" stroke="#d1242f" stroke-width="2.4" stroke-linecap="round" stroke-linejoin="round"/>
	<path d="M326 31l-18 18" stroke="#d1242f" stroke-width="2.4" stroke-linecap="round"/>
</svg>
