<svg width="260" height="58" viewBox="0 0 260 58" fill="none" xmlns="http://www.w3.org/2000/svg" role="img" aria-labelledby="portfolio-title portfolio-desc">
	<title id="portfolio-title">Portfolio</title>
	<desc id="portfolio-desc">baichu.dev</desc>
	<rect x="1" y="1" width="258" height="56" rx="10" fill="transparent" stroke="#d1242f" stroke-width="1.6"/>
	<g color="#d1242f">
		<path d="M25 25h16a3 3 0 0 1 3 3v10a3 3 0 0 1-3 3H25a3 3 0 0 1-3-3V28a3 3 0 0 1 3-3Z" stroke="currentColor" stroke-width="2" stroke-linejoin="round"/>
	<path d="M29 25v-3a2.5 2.5 0 0 1 2.5-2.5h3A2.5 2.5 0 0 1 37 22v3" stroke="currentColor" stroke-width="2" stroke-linecap="round"/>
	<path d="M22 31h22" stroke="currentColor" stroke-width="2" stroke-linecap="round"/>
	<path d="M33 30v3" stroke="currentColor" stroke-width="2" stroke-linecap="round"/>
	</g>
	<text x="58" y="26" fill="#d1242f" font-family="-apple-system, BlinkMacSystemFont, 'Segoe UI', Helvetica, Arial, sans-serif" font-size="15" font-weight="700">Portfolio</text>
	<text x="58" y="43" fill="#57606a" font-family="-apple-system, BlinkMacSystemFont, 'Segoe UI', Helvetica, Arial, sans-serif" font-size="12">baichu.dev</text>
	<path d="M229 22h9v9" stroke="#d1242f" stroke-width="2" stroke-linecap="round" stroke-linejoin="round"/>
	<path d="M238 22l-14 14" stroke="#d1242f" stroke-width="2" stroke-linecap="round"/>
</svg>
